<?xml version="1.0" encoding="UTF-8" standalone="no" ?>
<!DOCTYPE svg PUBLIC "-//W3C//DTD SVG 1.1//EN" "http://www.w3.org/Graphics/SVG/1.1/DTD/svg11.dtd">
<svg xmlns="http://www.w3.org/2000/svg" xmlns:xlink="http://www.w3.org/1999/xlink" version="1.1" width="1080" height="1080" viewBox="0 0 1080 1080" xml:space="preserve">
<desc>Created with Fabric.js 5.2.4</desc>
<defs>
</defs>
<g transform="matrix(1 0 0 1 540 540)" id="ff2bfee6-a085-4af0-a9ac-4eae388be3bc"  >
<rect style="stroke: none; stroke-width: 1; stroke-dasharray: none; stroke-linecap: butt; stroke-dashoffset: 0; stroke-linejoin: miter; stroke-miterlimit: 4; fill: rgb(255,255,255); fill-rule: nonzero; opacity: 1; visibility: hidden;" vector-effect="non-scaling-stroke"  x="-540" y="-540" rx="0" ry="0" width="1080" height="1080" />
</g>
<g transform="matrix(1 0 0 1 540 540)" id="5d1711d0-ef0d-424c-943c-e5f916a5a7ed"  >
</g>
<g transform="matrix(9.04 0 0 8.63 540 540)" id="6f9bed40-4320-49cf-9868-6bfe3fcfc794"  >
<path style="stroke: rgb(255,0,120); stroke-width: 0; stroke-dasharray: none; stroke-linecap: butt; stroke-dashoffset: 0; stroke-linejoin: miter; stroke-miterlimit: 4; fill: rgb(255,0,120); fill-rule: nonzero; opacity: 1;" vector-effect="non-scaling-stroke"  transform=" translate(-50.24, -61.46)" d="M 4.38 62.41 C 3.7199999999999998 61.79 3.1399999999999997 61.099999999999994 2.63 60.37 C 1.0099999999999998 58.04 0.17999999999999972 55.25 0.029999999999999805 52.39 C -0.12000000000000019 49.65 0.3399999999999998 46.82 1.3099999999999998 44.27 C 2.11 42.160000000000004 3.2699999999999996 40.220000000000006 4.7299999999999995 38.63 C 3.6999999999999993 35.95 3.3599999999999994 33.150000000000006 3.6099999999999994 30.440000000000005 C 3.8999999999999995 27.340000000000003 4.949999999999999 24.370000000000005 6.609999999999999 21.780000000000005 C 8.27 19.200000000000003 10.54 16.980000000000004 13.26 15.390000000000004 C 15.73 13.950000000000005 18.57 13.040000000000004 21.66 12.870000000000005 C 23.37 8.210000000000004 26.63 4.850000000000005 30.58 2.720000000000004 C 33.01 1.4100000000000041 35.699999999999996 0.5800000000000041 38.449999999999996 0.2200000000000042 C 41.16 -0.1399999999999958 43.92999999999999 -0.03999999999999582 46.53999999999999 0.5000000000000042 C 50.67999999999999 1.3600000000000043 54.459999999999994 3.350000000000004 57.07999999999999 6.410000000000005 C 61.47999999999999 5.020000000000005 66.39999999999999 5.280000000000005 70.78999999999999 6.840000000000004 C 73.16 7.680000000000004 75.39999999999999 8.900000000000004 77.33 10.460000000000004 C 79.31 12.050000000000004 80.98 13.990000000000004 82.15 16.220000000000006 C 83.62 19.020000000000007 84.32000000000001 22.230000000000004 83.89 25.720000000000006 C 86.76 26.490000000000006 89.39 27.930000000000007 91.68 29.870000000000005 C 94.44000000000001 32.2 96.7 35.260000000000005 98.24000000000001 38.71000000000001 C 99.77000000000001 42.14000000000001 100.59 45.96000000000001 100.47000000000001 49.830000000000005 C 100.32000000000001 54.690000000000005 98.72000000000001 59.61000000000001 95.24000000000001 63.93000000000001 L 83.05000000000001 122.91 L 66.57 122.91 L 69.33999999999999 58.379999999999995 L 90.61999999999999 58.379999999999995 C 92.49 55.629999999999995 93.36999999999999 52.61 93.46 49.63999999999999 C 93.55 46.839999999999996 92.94999999999999 44.06999999999999 91.83999999999999 41.56999999999999 C 90.72999999999999 39.089999999999996 89.10999999999999 36.89999999999999 87.14999999999999 35.239999999999995 C 84.94999999999999 33.379999999999995 82.30999999999999 32.209999999999994 79.52 32.12 L 74.69 31.97 L 76.3 27.439999999999998 C 77.38 24.389999999999997 77.09 21.689999999999998 75.94 19.499999999999996 C 75.23 18.149999999999995 74.19 16.949999999999996 72.94 15.949999999999996 C 71.64 14.909999999999997 70.11 14.069999999999997 68.47 13.489999999999995 C 64.8 12.189999999999994 60.69 12.169999999999995 57.46 13.859999999999994 L 54.38 15.479999999999993 L 52.730000000000004 12.419999999999993 C 51.32000000000001 9.799999999999994 48.440000000000005 8.099999999999993 45.13 7.409999999999993 C 43.28 7.029999999999993 41.31 6.959999999999993 39.38 7.209999999999993 C 37.46 7.43 35.6 8 33.92 8.91 C 30.93 10.52 28.55 13.25 27.740000000000002 17.14 L 27.1 20.21 L 23.98 19.92 C 21.29 19.67 18.83 20.28 16.78 21.470000000000002 C 15.05 22.480000000000004 13.590000000000002 23.900000000000002 12.530000000000001 25.57 C 11.46 27.240000000000002 10.780000000000001 29.13 10.600000000000001 31.07 C 10.39 33.29 10.830000000000002 35.6 12.070000000000002 37.74 L 13.700000000000003 40.54 L 11.040000000000003 42.39 C 9.680000000000003 43.34 8.580000000000002 44.93 7.880000000000003 46.78 C 7.25 48.44 6.95 50.26 7.04 52 C 7.13 53.61 7.5600000000000005 55.14 8.41 56.35 C 8.98 57.17 9.77 57.86 10.780000000000001 58.35 L 11.530000000000001 58.35 L 30 58.35 L 35.34 122.88 L 16.82 122.88 L 4.38 62.41 L 4.38 62.41 z M 62.1 26.24 C 64.61 26.24 66.65 28.279999999999998 66.65 30.79 C 66.65 33.3 64.61 35.339999999999996 62.10000000000001 35.339999999999996 C 59.59000000000001 35.339999999999996 57.55000000000001 33.3 57.55000000000001 30.789999999999996 C 57.56 28.27 59.59 26.24 62.1 26.24 L 62.1 26.24 z M 48.16 40.33 C 50.669999999999995 40.33 52.709999999999994 42.37 52.709999999999994 44.879999999999995 C 52.709999999999994 47.38999999999999 50.669999999999995 49.42999999999999 48.16 49.42999999999999 C 45.65 49.42999999999999 43.61 47.38999999999999 43.61 44.879999999999995 C 43.61 42.37 45.65 40.33 48.16 40.33 L 48.16 40.33 z M 28.46 31.69 C 30.97 31.69 33.01 33.730000000000004 33.01 36.24 C 33.01 38.75 30.97 40.79 28.459999999999997 40.79 C 25.949999999999996 40.79 23.909999999999997 38.75 23.909999999999997 36.24 C 23.91 33.73 25.94 31.69 28.46 31.69 L 28.46 31.69 z M 59.95 122.88 L 42 122.88 L 36.66 58.349999999999994 L 62.72 58.349999999999994 L 59.95 122.88 L 59.95 122.88 z" stroke-linecap="round" />
</g>
<g transform="matrix(NaN NaN NaN NaN 0 0)"  >
<g style=""   >
</g>
</g>
<g transform="matrix(NaN NaN NaN NaN 0 0)"  >
<g style=""   >
</g>
</g>
<g transform="matrix(NaN NaN NaN NaN 0 0)"  >
<g style=""   >
</g>
</g>
<g transform="matrix(NaN NaN NaN NaN 0 0)"  >
<g style=""   >
</g>
</g>
</svg>